<?xml version="1.0" encoding="utf-8"?>
<!-- Generator: Adobe Illustrator 16.0.0, SVG Export Plug-In . SVG Version: 6.00 Build 0)  -->
<!DOCTYPE svg PUBLIC "-//W3C//DTD SVG 1.1//EN" "http://www.w3.org/Graphics/SVG/1.1/DTD/svg11.dtd">
<svg version="1.1" id="Layer_1" xmlns="http://www.w3.org/2000/svg" xmlns:xlink="http://www.w3.org/1999/xlink" x="0px" y="0px"
	 width="60px" height="60px" viewBox="0 0 60 60" enable-background="new 0 0 60 60" xml:space="preserve">
<g>
	<g>
		<path d="M51.982,21.72c0.59-1.444,0.984-3.084,0.984-4.79c0-6.89-5.578-12.467-12.468-12.467H25.933
			c-6.891,0-12.468,5.578-12.468,12.467c0,0.197,0,0.328,0,0.525c-4.921,2.625-8.268,7.809-8.268,13.78
			c0.065,8.596,7.087,15.617,15.748,15.617h2.034l0.065,8.333c0,0.46,0.263,0.919,0.722,1.116c0.132,0.065,0.328,0.131,0.525,0.131
			c0.262,0,0.59-0.131,0.787-0.263l10.761-9.317h3.74c8.596,0,15.617-7.021,15.617-15.617C55.197,27.625,54.017,24.344,51.982,21.72
			z M39.58,44.423h-4.199c-0.263,0-0.591,0.131-0.787,0.263l-9.187,7.874v-6.956c0-0.656-0.525-1.181-1.181-1.181h-3.281
			c-7.283,0-13.189-5.906-13.189-13.189c0-4.725,2.494-8.858,6.234-11.221c1.378,5.38,6.233,9.318,12.008,9.318h3.28l8.334,8.399
			c0.262,0.262,0.524,0.328,0.853,0.328c0.132,0,0.328,0,0.459-0.065c0.46-0.197,0.723-0.656,0.723-1.115v-7.546h0.787
			c4.199,0,7.939-2.1,10.171-5.315c1.312,2.034,2.1,4.528,2.1,7.152C52.77,38.518,46.864,44.423,39.58,44.423z M25.933,6.89h14.501
			c5.512,0,10.039,4.528,10.039,10.04c0,0.984-0.131,1.903-0.394,2.756c-0.131,0.394-0.263,0.853-0.459,1.247
			c-0.197,0.394-0.394,0.788-0.591,1.116c-1.771,2.953-4.921,4.855-8.596,4.855h-1.969c-0.656,0-1.181,0.525-1.181,1.181v5.84
			l-6.693-6.627c-0.196-0.197-0.524-0.328-0.853-0.328h-3.806c-4.856,0-8.924-3.478-9.843-8.005
			c-0.065-0.394-0.132-0.853-0.132-1.247c0-0.263-0.065-0.525-0.065-0.722c0-0.197,0-0.328,0-0.525
			C16.221,11.09,20.617,6.89,25.933,6.89z"/>
		<path d="M22.323,17.979c0.394,0.459,0.984,0.788,1.706,0.788c0.656,0,1.247-0.328,1.706-0.788
			c0.263-0.328,0.459-0.722,0.459-1.181c0-0.065,0-0.131,0-0.197c0-0.394-0.131-0.722-0.262-1.05
			c-0.395-0.656-1.116-1.181-1.903-1.181c-0.854,0-1.575,0.459-1.903,1.181c-0.196,0.328-0.262,0.656-0.262,1.05
			c0,0.066,0,0.131,0,0.197C21.93,17.258,22.061,17.651,22.323,17.979z"/>
		<path d="M31.182,17.979c0.394,0.459,0.984,0.788,1.706,0.788c0.656,0,1.246-0.328,1.706-0.788
			c0.263-0.328,0.459-0.722,0.459-1.181c0-0.065,0-0.131,0-0.197c0-0.394-0.131-0.722-0.263-1.05
			c-0.394-0.656-1.115-1.181-1.902-1.181c-0.854,0-1.575,0.459-1.903,1.181c-0.196,0.328-0.262,0.656-0.262,1.05
			c0,0.066,0,0.131,0,0.197C30.723,17.258,30.919,17.651,31.182,17.979z"/>
		<path d="M40.04,18.045c0.394,0.459,0.984,0.787,1.641,0.787c0.459,0,0.853-0.131,1.181-0.394c0.394-0.263,0.656-0.591,0.854-1.05
			c0.065-0.263,0.131-0.525,0.131-0.788c0-0.131,0-0.328-0.065-0.459c-0.197-0.984-1.116-1.771-2.166-1.771
			c-0.853,0-1.574,0.459-1.902,1.181c-0.197,0.328-0.263,0.656-0.263,1.05c0,0.066,0,0.131,0,0.197
			C39.58,17.258,39.712,17.717,40.04,18.045z"/>
	</g>
</g>
</svg>
