<?xml version="1.0" encoding="utf-8"?>
<!-- Generator: Adobe Illustrator 16.0.0, SVG Export Plug-In . SVG Version: 6.00 Build 0)  -->
<!DOCTYPE svg PUBLIC "-//W3C//DTD SVG 1.1//EN" "http://www.w3.org/Graphics/SVG/1.1/DTD/svg11.dtd">
<svg version="1.1" id="Layer_1" xmlns="http://www.w3.org/2000/svg" xmlns:xlink="http://www.w3.org/1999/xlink" x="0px" y="0px"
	 width="60px" height="60px" viewBox="0 0 60 60" enable-background="new 0 0 60 60" xml:space="preserve">
<path d="M11.773,18.603c-0.708,0.034-1.255,0.634-1.222,1.342s0.634,1.255,1.342,1.222c8.17,0,15.558,3.246,20.894,8.594
	c0.493,0.508,1.306,0.519,1.813,0.025c0.508-0.494,0.52-1.305,0.026-1.813c-0.012-0.012-0.024-0.024-0.036-0.036
	c-5.805-5.818-13.846-9.335-22.696-9.335C11.854,18.602,11.813,18.602,11.773,18.603z M11.773,26.295
	c-0.708,0.033-1.255,0.634-1.222,1.342s0.634,1.255,1.342,1.222c12.052,0,21.795,9.743,21.795,21.794
	c-0.01,0.708,0.556,1.291,1.264,1.3c0.708,0.01,1.29-0.556,1.301-1.264c0-0.012,0-0.024,0-0.037
	c0-13.438-10.922-24.359-24.359-24.359C11.854,26.294,11.813,26.294,11.773,26.295z M37.174,32.045
	c-0.704,0.077-1.212,0.71-1.135,1.414c0.023,0.22,0.104,0.43,0.233,0.609c3.221,4.726,5.108,10.431,5.108,16.586
	c-0.01,0.708,0.556,1.291,1.264,1.3c0.708,0.01,1.29-0.556,1.301-1.264c0-0.012,0-0.024,0-0.037c0-6.679-2.049-12.893-5.55-18.029
	C38.132,32.215,37.658,31.99,37.174,32.045z M11.773,33.988c-0.708,0.033-1.255,0.634-1.222,1.342s0.634,1.255,1.342,1.222
	c7.804,0,14.103,6.299,14.103,14.103c-0.01,0.708,0.556,1.291,1.264,1.3c0.708,0.01,1.29-0.556,1.301-1.264c0-0.012,0-0.024,0-0.037
	c0-9.189-7.478-16.667-16.667-16.667C11.854,33.986,11.813,33.986,11.773,33.988z"/>
<path fill="none" stroke="#000000" stroke-width="2.5" stroke-linecap="round" stroke-miterlimit="10" d="M28.179,14.493
	C41.857,20.896,51.33,34.784,51.33,50.886"/>
<path fill="none" stroke="#000000" stroke-width="2.5" stroke-linecap="round" stroke-miterlimit="10" d="M11.586,10.727
	c4.043,0.041,7.942,0.679,11.614,1.831"/>
</svg>
